<?xml version="1.0" encoding="UTF-8" standalone="no"?>
<!-- Generator: Adobe Illustrator 13.0.0, SVG Export Plug-In  -->
<svg
   xmlns:dc="http://purl.org/dc/elements/1.1/"
   xmlns:cc="http://creativecommons.org/ns#"
   xmlns:rdf="http://www.w3.org/1999/02/22-rdf-syntax-ns#"
   xmlns:svg="http://www.w3.org/2000/svg"
   xmlns="http://www.w3.org/2000/svg"
   xmlns:sodipodi="http://sodipodi.sourceforge.net/DTD/sodipodi-0.dtd"
   xmlns:inkscape="http://www.inkscape.org/namespaces/inkscape"
   version="1.1"
   x="0px"
   y="0px"
   width="542px"
   height="933px"
   viewBox="-0.333 -0.489 542 933"
   enable-background="new -0.333 -0.489 542 933"
   xml:space="preserve"
   id="svg2607"
   sodipodi:version="0.32"
   inkscape:version="0.46"
   sodipodi:docname="Poutrelle.svg"
   inkscape:output_extension="org.inkscape.output.svg.inkscape"><metadata
   id="metadata2770"><rdf:RDF><cc:Work
       rdf:about=""><dc:format>image/svg+xml</dc:format><dc:type
         rdf:resource="http://purl.org/dc/dcmitype/StillImage" /></cc:Work></rdf:RDF></metadata><sodipodi:namedview
   inkscape:window-height="888"
   inkscape:window-width="1264"
   inkscape:pageshadow="2"
   inkscape:pageopacity="0.0"
   guidetolerance="10.0"
   gridtolerance="10.0"
   objecttolerance="10.0"
   borderopacity="1.0"
   bordercolor="#666666"
   pagecolor="#ffffff"
   id="base"
   showgrid="true"
   inkscape:zoom="0.73204716"
   inkscape:cx="271"
   inkscape:cy="466.5"
   inkscape:window-x="-4"
   inkscape:window-y="-4"
   inkscape:current-layer="svg2607"
   inkscape:snap-global="false"><inkscape:grid
     type="xygrid"
     id="grid2774" /></sodipodi:namedview>
<defs
   id="defs2609"><inkscape:perspective
   sodipodi:type="inkscape:persp3d"
   inkscape:vp_x="0 : 466.5 : 1"
   inkscape:vp_y="0 : 1000 : 0"
   inkscape:vp_z="542 : 466.5 : 1"
   inkscape:persp3d-origin="271 : 311 : 1"
   id="perspective2772" />
</defs>
<path
   opacity="0.64"
   fill="#FFFFFF"
   stroke="#000000"
   d="M273.99,128.954v-24.99c0-6.801,5.592-12.314,12.49-12.314H309"
   id="path2611" />
<path
   opacity="0.98"
   fill="#007D56"
   stroke="#000000"
   d="M296.167,172.511l0.167-2.39c0-22.92,19.028-41.5,42.5-41.5l4.167-0.444  h127.638V92.438H98.807v35.223h129.551l4.167,0.444c23.472,0,42.5,18.58,42.5,41.5l0.167,2.39v572.443v6.668  c0,22.92-19.028,41.5-42.5,41.5l-3.333-0.277h-117l-13.552-0.046v36.775h371.831v-36.254L459,792.844H342l-3.333,0.277  c-23.472,0-42.5-18.58-42.5-41.5v-6.667V172.511z"
   id="path2613" />
<line
   fill="#005EAD"
   stroke="#005EAD"
   stroke-width="0.5"
   x1="116.328"
   y1="50.511"
   x2="464.507"
   y2="50.511"
   id="line2615" />
<line
   fill="none"
   stroke="#005EAD"
   stroke-width="0.5"
   x1="102.673"
   y1="84.014"
   x2="102.673"
   y2="10.014"
   id="line2617" />
<polygon
   fill="#005EAD"
   stroke="#005EAD"
   stroke-width="0.5"
   points="128.066,45.149 128.066,50.693 128.066,56.237 116.212,53.465   104.36,50.694 116.212,47.92 "
   id="polygon2619" />
<line
   fill="none"
   stroke="#005EAD"
   stroke-width="0.5"
   x1="469.066"
   y1="81"
   x2="469.066"
   y2="0"
   id="line2621" />
<polygon
   fill="#005EAD"
   stroke="#005EAD"
   stroke-width="0.5"
   points="444.674,44.135 444.674,49.679 444.674,55.223 456.527,52.451   468.38,49.68 456.527,46.906 "
   id="polygon2623" />
<line
   fill="#005EAD"
   stroke="#005EAD"
   stroke-width="0.5"
   x1="36.667"
   y1="94.844"
   x2="36.667"
   y2="813.511"
   id="line2625" />
<line
   fill="none"
   stroke="#005EAD"
   stroke-width="0.5"
   x1="0"
   y1="91.511"
   x2="90"
   y2="91.511"
   id="line2627" />
<line
   fill="none"
   stroke="#005EAD"
   stroke-width="0.5"
   x1="8.667"
   y1="828.511"
   x2="89.667"
   y2="828.511"
   id="line2629" />














<polygon
   fill="#005EAD"
   stroke="#005EAD"
   stroke-width="0.5"
   points="30.667,801.844 36.21,801.844 41.754,801.844 38.983,813.697   36.211,825.55 33.438,813.697 "
   id="polygon2659" />
<polygon
   fill="#005EAD"
   stroke="#005EAD"
   stroke-width="0.5"
   points="41.754,116.55 36.21,116.55 30.667,116.55 33.438,104.696   36.209,92.844 38.983,104.696 "
   id="polygon2661" />


















<line
   x1="159.80098"
   y1="915.61761"
   x2="159.80098"
   y2="738.61761"
   id="line2699"
   style="fill:none;stroke:#005ead;stroke-width:0.5" />
<polygon
   fill="#005EAD"
   stroke="#005EAD"
   stroke-width="0.5"
   points="155.333,768.177 160.877,768.177 166.421,768.177   163.649,780.03 160.878,791.883 158.104,780.03 "
   id="polygon2701" />
<polygon
   fill="#005EAD"
   stroke="#005EAD"
   stroke-width="0.5"
   points="166.754,854.551 161.21,854.551 155.667,854.551   158.438,842.697 161.209,830.845 163.983,842.697 "
   id="polygon2703" />






























<line
   fill="#334491"
   stroke="#005EAD"
   x1="405.667"
   y1="743.621"
   x2="359.667"
   y2="789.621"
   id="line2765" />
<line
   fill="#334491"
   stroke="#005EAD"
   x1="373.667"
   y1="319.621"
   x2="301.667"
   y2="393.621"
   id="line2767" />
<text
   xml:space="preserve"
   style="font-size:36;font-style:normal;font-variant:normal;font-weight:normal;font-stretch:normal;text-align:start;line-height:125%;writing-mode:lr-tb;text-anchor:start;fill:#008080;fill-opacity:1;stroke:none;stroke-width:1px;stroke-linecap:butt;stroke-linejoin:miter;stroke-opacity:1;font-family:Arial;-inkscape-font-specification:Arial"
   x="383.52206"
   y="315.06445"
   id="text2776"
   sodipodi:linespacing="125%"><tspan
     sodipodi:role="line"
     id="tspan2778"
     x="383.52206"
     y="315.06445">Web</tspan></text>
<text
   xml:space="preserve"
   style="font-size:36;font-style:normal;font-variant:normal;font-weight:normal;font-stretch:normal;text-align:start;line-height:125%;writing-mode:lr-tb;text-anchor:start;fill:#008080;fill-opacity:1;stroke:none;stroke-width:1px;stroke-linecap:butt;stroke-linejoin:miter;stroke-opacity:1;font-family:Arial;-inkscape-font-specification:Arial"
   x="401.28046"
   y="724.87408"
   id="text2780"
   sodipodi:linespacing="125%"><tspan
     sodipodi:role="line"
     id="tspan2782"
     x="401.28046"
     y="724.87408">Flange</tspan></text>
<text
   xml:space="preserve"
   style="font-size:28px;font-style:normal;font-variant:normal;font-weight:normal;font-stretch:normal;text-align:start;line-height:125%;writing-mode:lr-tb;text-anchor:start;fill:#008080;fill-opacity:1;stroke:none;stroke-width:1px;stroke-linecap:butt;stroke-linejoin:miter;stroke-opacity:1;font-family:Arial;-inkscape-font-specification:Arial"
   x="170.42102"
   y="881.96783"
   id="text2784"
   sodipodi:linespacing="125%"><tspan
     sodipodi:role="line"
     id="tspan2786"
     x="170.42102"
     y="881.96783">Flange thickness (t)</tspan></text>
<text
   xml:space="preserve"
   style="font-size:36px;font-style:normal;font-variant:normal;font-weight:normal;font-stretch:normal;text-align:start;line-height:125%;writing-mode:lr-tb;text-anchor:start;fill:#008080;fill-opacity:1;font-family:Arial;-inkscape-font-specification:Arial"
   x="164.95689"
   y="32.295773"
   id="text2788"
   sodipodi:linespacing="125%"><tspan
     sodipodi:role="line"
     id="tspan2790"
     x="164.95689"
     y="32.295773">Flange width (w)</tspan></text>
<text
   xml:space="preserve"
   style="font-size:36px;font-style:normal;font-variant:normal;font-weight:normal;font-stretch:normal;text-align:start;line-height:125%;writing-mode:lr-tb;text-anchor:start;fill:#008080;fill-opacity:1;stroke:none;stroke-width:1px;stroke-linecap:butt;stroke-linejoin:miter;stroke-opacity:1;font-family:Arial;-inkscape-font-specification:Arial"
   x="-573.87701"
   y="30.595257"
   id="text2792"
   sodipodi:linespacing="125%"
   transform="matrix(0,-1,1,0,0,0)"><tspan
     sodipodi:role="line"
     id="tspan2794"
     x="-573.87701"
     y="30.595257">Beam height (h)</tspan></text>
<g
   id="g2804"
   transform="matrix(0,1,-0.3979537,0,518.56031,341.27745)"><polygon
     style="fill:#005ead;stroke:#005ead;stroke-width:0.5"
     transform="translate(51.891025,-236.83818)"
     id="polygon2796"
     points="155.333,768.177 160.877,768.177 166.421,768.177 163.649,780.03 160.878,791.883 158.104,780.03 155.333,768.177 " /><line
     style="fill:none;stroke:#005ead;stroke-width:0.5"
     id="line2800"
     y2="353.60544"
     x2="211.40199"
     y1="530.60541"
     x1="211.40199" /></g><g
   id="g2808"
   transform="matrix(0,-1,0.5061867,0,-5.5940355,765.52207)"><polygon
     style="fill:#005ead;stroke:#005ead;stroke-width:0.5"
     transform="translate(51.891025,-236.83818)"
     id="polygon2810"
     points="155.333,768.177 160.877,768.177 166.421,768.177 163.649,780.03 160.878,791.883 158.104,780.03 155.333,768.177 " /><line
     style="fill:none;stroke:#005ead;stroke-width:0.5"
     id="line2812"
     y2="353.60544"
     x2="211.40199"
     y1="530.60541"
     x1="211.40199" /></g><text
   xml:space="preserve"
   style="font-size:28px;font-style:normal;font-variant:normal;font-weight:normal;font-stretch:normal;text-align:start;line-height:125%;writing-mode:lr-tb;text-anchor:start;fill:#008080;fill-opacity:1;stroke:none;stroke-width:1px;stroke-linecap:butt;stroke-linejoin:miter;stroke-opacity:1;font-family:Arial;-inkscape-font-specification:Arial"
   x="302.92615"
   y="529.53149"
   id="text2814"
   sodipodi:linespacing="125%"><tspan
     sodipodi:role="line"
     id="tspan2816"
     x="302.92615"
     y="529.53149">Web thickness (b)</tspan></text>
</svg>